<svg width="69" height="71" viewBox="0 0 69 71" fill="none" xmlns="http://www.w3.org/2000/svg">
<g clip-path="url(#clip0_6333_151)">
<path d="M349 94.989C349 94.9951 348.995 95 348.989 95V95C348.983 95 348.978 94.9953 348.978 94.9894C348.448 81.6509 337.469 71 324 71H65.5179C60.4543 71 56.295 67.1673 54.8111 62.3261C48.5414 41.8724 29.508 27 7 27H-1020C-1042.51 27 -1061.54 41.8724 -1067.81 62.3261C-1069.3 67.1673 -1073.45 71 -1078.52 71H-1546C-1559.47 71 -1570.45 81.6509 -1570.98 94.9894C-1570.98 94.9953 -1570.98 95 -1570.99 95V95C-1571 95 -1571 94.9951 -1571 94.989V10C-1571 4.47715 -1566.52 0 -1561 0H339C344.523 0 349 4.47715 349 10V94.989Z" fill="#7027E2"/>
</g>
<defs>
<clipPath id="clip0_6333_151">
<rect width="69" height="71" fill="white"/>
</clipPath>
</defs>
</svg>
