<svg width="69" height="95" viewBox="0 0 69 95" fill="none" xmlns="http://www.w3.org/2000/svg">
<g clip-path="url(#clip0_6006_142)">
<path fill-rule="evenodd" clip-rule="evenodd" d="M-490 10C-490 4.47715 -485.523 0 -480 0H1420C1425.52 0 1430 4.47715 1430 10V94.99C1430 94.9955 1430 95 1429.99 95V95C1429.98 95 1429.98 94.9957 1429.98 94.9903C1429.45 81.6513 1418.47 71 1405 71H1146.52C1141.46 71 1137.3 67.1673 1135.81 62.3261C1129.54 41.8723 1110.51 27 1088 27H61C38.492 27 19.4576 41.8723 13.1878 62.3261C11.7038 67.1673 7.54451 71 2.48097 71H-465C-478.469 71 -489.45 81.6513 -489.98 94.9903C-489.98 94.9957 -489.985 95 -489.99 95V95C-489.996 95 -490 94.9955 -490 94.99V10Z" fill="#7027E2"/>
</g>
<defs>
<clipPath id="clip0_6006_142">
<rect width="69" height="95" fill="white"/>
</clipPath>
</defs>
</svg>
